<?xml version="1.0" encoding="utf-8"?>
<!-- Generator: Adobe Illustrator 22.0.1, SVG Export Plug-In . SVG Version: 6.00 Build 0)  -->
<svg version="1.1" id="Layer_1" xmlns="http://www.w3.org/2000/svg" xmlns:xlink="http://www.w3.org/1999/xlink" x="0px" y="0px"
	 viewBox="0 0 240 72" style="enable-background:new 0 0 240 72;" xml:space="preserve">
<style type="text/css">
	.st0{fill:#141826;}
	.st1{fill:#FFFFFF;}
</style>
<g>
	<path class="st0" d="M204.8,72H35.2C15.8,72,0,56.2,0,36.8l0-1.5C0,15.8,15.8,0,35.2,0l169.5,0C224.2,0,240,15.8,240,35.2v1.5
		C240,56.2,224.2,72,204.8,72z"/>
	<g>
		<path class="st1" d="M75.6,19.4c-0.2-0.4-0.4-0.8-0.8-1.1l0,0l-6.6-5.8l0,0.1c-0.6-0.7-1.6-1.1-2.6-1.1H43.4
			c-1.9,0-3.5,1.6-3.5,3.5v35.5c0,1,0.5,2,1.3,2.6l6.3,6.2l0,0c0.2,0.2,0.5,0.4,0.8,0.5c0.4,0.2,0.8,0.2,1.2,0.2
			c0.8,0,1.7-0.3,2.3-1l19.4-19.4c0.9-0.9,1.2-2.3,0.7-3.5c-0.1-0.3-0.3-0.6-0.5-0.9l0,0l-0.2-0.2c0,0-0.1-0.1-0.1-0.1L67.2,31
			l7.7-7.8C75.9,22.2,76.2,20.7,75.6,19.4z M66.2,15.4L51.2,30.7h11c0.5,0,0.8,0.6,0.4,1l-19,19.1c-0.4,0.4-1,0.1-1-0.4V33.4v-2.2
			V14.8c0-0.4,0.4-0.8,0.8-0.8h22.3C66.4,14,66.7,14.9,66.2,15.4z"/>
		<g>
			<path class="st1" d="M95.6,28.8c1.4-0.8,3-1.2,4.9-1.2c1.9,0,3.7,0.5,5.3,1.4c1.6,0.9,2.8,2.2,3.7,3.9c0.9,1.7,1.3,3.6,1.3,5.8
				c0,2.2-0.4,4.1-1.3,5.8c-0.9,1.7-2.1,3-3.7,4c-1.6,0.9-3.3,1.4-5.2,1.4c-1.9,0-3.5-0.4-4.9-1.2c-1.3-0.8-2.4-1.7-3.1-2.9
				c-0.1-0.1-0.2-0.1-0.2,0l-2.1,3.7c0,0-0.1,0.1-0.1,0.1h-1.1c-0.1,0-0.1-0.1-0.1-0.1V21.6c0-0.1,0-0.1,0.1-0.1l3.3-1.1
				c0.1,0,0.2,0,0.2,0.1v10.9c0,0.1,0.2,0.2,0.2,0.1C93.3,30.4,94.3,29.5,95.6,28.8z M106,34.4c-0.7-1.2-1.5-2.1-2.7-2.8
				c-1.1-0.6-2.3-0.9-3.7-0.9c-1.3,0-2.5,0.3-3.7,1c-1.1,0.6-2,1.6-2.7,2.8c-0.7,1.2-1,2.6-1,4.2c0,1.6,0.3,3.1,1,4.3
				c0.7,1.2,1.6,2.2,2.7,2.8c1.1,0.6,2.3,1,3.7,1c1.3,0,2.6-0.3,3.7-1c1.1-0.6,2-1.6,2.7-2.8c0.7-1.2,1-2.7,1-4.3
				C107,37,106.7,35.6,106,34.4z"/>
			<path class="st1" d="M115.5,23.7c-0.5-0.5-0.7-1.1-0.7-1.7c0-0.7,0.2-1.3,0.7-1.7c0.5-0.5,1.2-0.8,2-0.7c0.4,0,0.9,0.2,1.2,0.5
				c0.6,0.5,0.9,1.2,0.9,2c0,0.8-0.3,1.4-0.9,2c-0.3,0.3-0.8,0.4-1.2,0.5C116.7,24.5,116.1,24.2,115.5,23.7z M119,28v21.5
				c0,0,0,0.1-0.1,0.1h-3.5c0,0-0.1,0-0.1-0.1V28c0,0,0-0.1,0.1-0.1L119,28C119,27.9,119,27.9,119,28z"/>
			<path class="st1" d="M159,39.9h-17.1c0,0-0.1,0-0.1,0.1c0.1,2.1,0.8,3.7,2.1,5c1.3,1.2,3,1.9,4.9,1.9c1.6,0,2.8-0.4,3.9-1.1
				c1-0.7,1.7-1.7,2.2-2.8c0,0,0-0.1,0.1-0.1h3.7c0.1,0,0.1,0.1,0.1,0.1c-0.6,2-1.7,3.7-3.4,5c-1.7,1.3-3.9,2-6.5,2
				c-2.1,0-3.9-0.5-5.5-1.4c-1.6-0.9-2.9-2.2-3.8-3.9c-0.9-1.7-1.4-3.7-1.4-5.9c0-2.2,0.4-4.2,1.3-5.9c0.9-1.7,2.2-3,3.8-3.9
				c1.6-0.9,3.5-1.4,5.6-1.4c2.1,0,3.9,0.4,5.4,1.3c1.6,0.9,2.8,2.1,3.7,3.7c0.9,1.6,1.3,3.3,1.3,5.2
				C159.2,38.4,159.2,39.1,159,39.9C159.1,39.9,159.1,39.9,159,39.9z M154.6,33.7c-0.6-1-1.4-1.8-2.5-2.3c-1-0.5-2.2-0.8-3.5-0.8
				c-1.8,0-3.4,0.6-4.7,1.8c-1.3,1.2-2,2.8-2.1,4.9c0,0,0,0.1,0.1,0.1h13.5c0,0,0.1,0,0.1-0.1C155.5,35.9,155.2,34.7,154.6,33.7z"/>
			<path class="st1" d="M170.3,28.7c1.1-0.8,2.5-1.2,4.2-1.2c0.1,0,0.1,0,0.1,0.1v3.6h-0.9c-4,0-6,2.2-6,6.5v11.6
				c0,0.1,0,0.1-0.1,0.1h-3.4c-0.1,0-0.1,0-0.1-0.1V29.1c0,0,0-0.1,0.1-0.1l3.4-1.1c0.1,0,0.1,0,0.1,0.1v3.6c0,0.1,0.1,0.1,0.2,0
				C168.4,30.4,169.2,29.4,170.3,28.7z"/>
			<path class="st1" d="M178.7,32.8c0.9-1.7,2.1-3,3.7-3.9c1.6-0.9,3.3-1.4,5.2-1.4c1.9,0,3.5,0.4,4.9,1.2c1.2,0.7,2.1,1.6,2.8,2.6
				c0.1,0.1,0.3,0.1,0.3-0.1l0-3.2c0-0.1,0.1-0.2,0.2-0.2h3.3c0.1,0,0.2,0.1,0.2,0.2v21.3c0,0.1-0.1,0.2-0.2,0.2h-3.3
				c-0.1,0-0.2-0.1-0.2-0.2l0-3.3c0-0.2-0.2-0.2-0.3-0.1c-0.7,1-1.7,1.9-2.9,2.6c-1.4,0.8-3,1.2-4.9,1.2c-1.9,0-3.7-0.5-5.2-1.4
				c-1.6-0.9-2.8-2.3-3.7-4c-0.9-1.7-1.3-3.7-1.3-5.8C177.4,36.4,177.8,34.5,178.7,32.8z M194.7,34.4c-0.7-1.2-1.5-2.1-2.7-2.8
				c-1.1-0.6-2.3-1-3.7-1s-2.6,0.3-3.7,0.9c-1.1,0.6-2,1.6-2.6,2.8c-0.7,1.2-1,2.6-1,4.3c0,1.7,0.3,3.1,1,4.3
				c0.7,1.2,1.5,2.2,2.6,2.8c1.1,0.6,2.3,1,3.7,1s2.6-0.3,3.7-1c1.1-0.6,2-1.6,2.7-2.8c0.7-1.2,1-2.6,1-4.3
				C195.7,37.1,195.3,35.6,194.7,34.4z"/>
			<path class="st1" d="M132.5,46.4c-1.1,0-1.9-0.2-2.3-0.7c-0.4-0.4-0.7-1.2-0.7-2.2V31c0-0.1,0.1-0.1,0.1-0.1h3.4
				c0.1,0,0.1-0.1,0.1-0.1V28c0-0.1-0.1-0.1-0.1-0.1h-3.4c-0.1,0-0.1-0.1-0.1-0.1v-5.1c0-0.1-0.1-0.2-0.2-0.1l-3.3,1.1
				c-0.1,0-0.1,0.1-0.1,0.1v4c0,0.1-0.1,0.1-0.1,0.1h-2.5c-0.1,0-0.1,0.1-0.1,0.1v2.6c0,0.1,0.1,0.1,0.1,0.1h3.9
				c0.2,0,0.2,0.2,0.1,0.3l-1.3,0.7c0,0-0.1,0.1-0.1,0.1v11.6c0,2.1,0.5,3.6,1.5,4.5c1,0.9,2.5,1.4,4.5,1.4h3.1
				c0.1,0,0.1-0.1,0.1-0.1v-2.7c0-0.1-0.1-0.1-0.1-0.1H132.5z"/>
		</g>
	</g>
</g>
</svg>
